Coordinates
version=1
nRows=24
nColumns=19
inDegrees=yes

Units are S.I. units (second, meters, Newtons, ...)
If the header above contains a line with 'inDegrees', this indicates whether rotational values are in degrees (yes) or radians (no).

endheader
time	pelvis_tilt	pelvis_list	pelvis_rotation	pelvis_tx	pelvis_ty	pelvis_tz	hip_flexion_r	hip_adduction_r	hip_rotation_r	knee_angle_r	knee_angle_r_beta	ankle_angle_r	hip_flexion_l	hip_adduction_l	hip_rotation_l	knee_angle_l	knee_angle_l_beta	ankle_angle_l
     16.57333333	    -10.36126421	      4.90322711	      4.33165819	      2.25422485	      1.07476851	      1.00922146	     -2.67681379	    -13.56176730	    -15.72005272	     69.60707624	      1.21487266	    -26.63997962	     27.78190080	      8.46117120	    -10.91330055	      8.31447220	      0.14511492	     -1.09355674
     16.58000000	    -10.50904193	      5.21165146	      4.51786008	      2.25271825	      1.06945076	      1.00961238	     -0.97343025	    -13.90069166	    -14.63268526	     73.30316238	      1.27938154	    -27.01776056	     28.62105528	      8.54959310	    -11.56424131	     11.37579935	      0.19854515	     -0.59109892
     16.58666667	    -10.65910741	      5.49017365	      4.71475744	      2.25111438	      1.06383724	      1.01016255	      0.78893318	    -14.16666551	    -13.56802059	     76.90475223	      1.34224114	    -27.29842490	     29.55678191	      8.53099086	    -12.21356836	     14.83617818	      0.25894016	      0.28323742
     16.59333333	    -10.88066196	      5.68535587	      4.90813383	      2.24933832	      1.05790014	      1.01086529	      2.71154044	    -14.32504332	    -12.52628689	     80.42694077	      1.40371492	    -27.36991019	     30.62002988	      8.38096720	    -12.73959891	     18.54625079	      0.32369314	      1.42448295
     16.60000000	    -11.18192576	      5.78088665	      5.07001703	      2.24746048	      1.05176038	      1.01175415	      4.80824005	    -14.35023106	    -11.47258953	     83.83571780	      1.46320931	    -27.33495003	     31.75195770	      8.10519671	    -13.08015498	     22.35032194	      0.39008671	      2.90808758
     16.60666667	    -11.50093539	      5.79438792	      5.20983550	      2.24543317	      1.04560066	      1.01268824	      7.01285563	    -14.27231317	    -10.43494026	     87.11238570	      1.52039795	    -27.23235038	     32.82920116	      7.77293680	    -13.17447647	     26.08795202	      0.45532066	      4.66433987
     16.61333333	    -11.89344863	      5.74476354	      5.31909404	      2.24325523	      1.03949043	      1.01366182	      9.39520490	    -14.11385145	     -9.39410632	     90.25339614	      1.57521892	    -27.03445336	     33.86021559	      7.43049570	    -13.03357797	     29.63484991	      0.51722570	      6.65824348
     16.62000000	    -11.55597701	      5.98471879	      5.39616325	      2.24139051	      1.03470708	      1.01445098	     10.91274144	    -14.32281052	     -8.51913472	     93.09936196	      1.62489040	    -26.73513654	     33.78250901	      7.41879170	    -12.84616340	     32.65284870	      0.56989972	      8.86251134
     16.62666667	    -12.81227160	      5.49889752	      5.34581452	      2.23844380	      1.02812036	      1.01546963	     14.63520569	    -13.59600117	     -7.22031969	     96.00856247	      1.67566553	    -26.70729854	     35.52230322	      6.76856392	    -12.32151479	     35.75345674	      0.62401554	     11.04804918
     16.63333333	    -13.28758822	      5.37272845	      5.20356753	      2.23591077	      1.02319892	      1.01643311	     17.44550577	    -13.25848926	     -6.01566367	     98.57552781	      1.72046752	    -26.57974470	     36.02267519	      6.44130923	    -11.97743077	     38.19413362	      0.66661339	     13.24623371
     16.64000000	    -13.77961507	      5.27635676	      5.00249473	      2.23335595	      1.01888032	      1.01734022	     20.34115642	    -12.92876373	     -4.80800012	    100.89105047	      1.76088102	    -26.45157333	     36.27530759	      6.17277216	    -11.64226669	     40.16000573	      0.70092433	     15.40266990
     16.64666667	    -14.32719544	      5.18002294	      4.76777140	      2.23084420	      1.01526890	      1.01815106	     23.34430439	    -12.54318123	     -3.60217648	    102.91357948	      1.79618081	    -26.36606292	     36.30622163	      5.95952812	    -11.25325156	     41.61261802	      0.72627719	     17.42168049
     16.65333333	    -14.52821741	      5.17004069	      4.35936469	      2.22868447	      1.01289134	      1.01914137	     25.97524323	    -12.13983102	     -2.34279465	    104.58247618	      1.82530855	    -26.20071227	     35.66528083	      5.68774765	    -11.19880009	     42.58854589	      0.74331035	     19.29314255
     16.66000000	    -14.99193885	      5.10189344	      4.01294373	      2.22648547	      1.01099631	      1.01994295	     28.89086644	    -11.65458318	     -1.19604218	    105.93900783	      1.84898449	    -26.06289791	     35.07323602	      5.48288968	    -10.96795057	     43.10377961	      0.75230287	     20.79339657
     16.66666667	    -14.94927704	      5.09367839	      3.53920904	      2.22494541	      1.01064823	      1.02082107	     31.14026830	    -11.17191746	     -0.12579626	    106.85617010	      1.86499199	    -25.80338663	     33.62735390	      5.24090726	    -10.98098413	     43.12248797	      0.75262940	     22.14226705
     16.67333333	    -15.01921106	      5.09442812	      3.03415916	      2.22372582	      1.01095778	      1.02165644	     33.44339037	    -10.65081453	      0.89380155	    107.42750459	      1.87496366	    -25.49421135	     32.06831563	      5.02077186	    -11.09143965	     42.72078918	      0.74561843	     23.14796444
     16.68000000	    -15.05017148	      5.07508992	      2.55401134	      2.22288096	      1.01206424	      1.02235106	     35.56715204	    -10.13613172	      1.73757421	    107.63172828	      1.87852804	    -25.09053945	     30.26462449	      4.83001055	    -11.20889726	     41.95282569	      0.73221494	     23.81159794
     16.68666667	    -15.18464458	      4.74610243	      2.40217773	      2.22243433	      1.01383908	      1.02255245	     37.50867834	     -9.55503084	      1.95523436	    107.38125101	      1.87415639	    -24.56651595	     28.47277387	      4.55958198	    -10.82291362	     40.97778587	      0.71519728	     24.15765124
     16.69333333	    -15.00312032	      5.00984535	      1.54898110	      2.22259980	      1.01655658	      1.02350972	     39.23305094	     -9.13001813	      3.01960003	    106.95882905	      1.86678373	    -23.88020121	     25.97675958	      4.51418722	    -11.62547778	     39.38358031	      0.68737315	     24.11493742
     16.70000000	    -14.66864107	      4.98722066	      1.09862409	      2.22333541	      1.02027719	      1.02377879	     40.41566045	     -8.79373877	      3.36308427	    106.06929884	      1.85125850	    -23.09250237	     23.20778259	      4.49753916	    -11.77006945	     37.52848651	      0.65499565	     23.64771897
     16.70666667	    -14.19528047	      4.75222251	      0.77878526	      2.22443635	      1.02474698	      1.02382841	     41.19380647	     -8.39532876	      3.32343531	    104.81385552	      1.82934688	    -22.17090388	     20.22987533	      4.35804760	    -11.71065353	     35.52608660	      0.62004718	     22.86661759
     16.71333333	    -14.73529867	      4.33783131	      0.62470818	      2.22529512	      1.02809814	      1.02377137	     42.98444833	     -7.87492773	      3.05979123	    103.37494723	      1.80423319	    -21.26643802	     18.45623088	      4.06732741	    -11.49030492	     33.69038351	      0.58800812	     21.67911137
     16.72000000	    -14.01809390	      4.29814520	      0.20127223	      2.22739999	      1.03366856	      1.02362211	     43.19906308	     -7.81267525	      2.94174220	    101.60415776	      1.77332709	    -20.15708814	     14.92984315	      4.18937060	    -11.66996453	     31.05217233	      0.54196265	     19.94534265
     16.72666667	    -14.01021294	      3.97739053	     -0.00073605	      2.22926249	      1.03847024	      1.02332492	     44.02968373	     -7.58199774	      2.46191651	     99.61980127	      1.73869353	    -19.07035424	     12.33976932	      4.06440481	    -11.54551008	     28.66573923	      0.50031153	     17.86057464
